<?xml version="1.0" standalone="no"?>
<!DOCTYPE svg PUBLIC "-//W3C//DTD SVG 20010904//EN"
 "http://www.w3.org/TR/2001/REC-SVG-20010904/DTD/svg10.dtd">
<svg version="1.0" xmlns="http://www.w3.org/2000/svg"
 width="2000.000000pt" height="800.000000pt" viewBox="0 0 2000.000000 800.000000"
 preserveAspectRatio="xMidYMid meet">
<metadata>
Created by potrace 1.11, written by Peter Selinger 2001-2013
</metadata>
<g transform="translate(0.000000,800.000000) scale(0.100000,-0.100000)"
fill="#000000" stroke="none">
<path d="M0 4000 l0 -4000 10000 0 10000 0 0 4000 0 4000 -10000 0 -10000 0 0
-4000z m19895 0 l0 -3895 -9895 0 -9895 0 -3 3885 c-1 2137 0 3891 3 3898 3
10 1988 12 9897 10 l9893 -3 0 -3895z"/>
<path d="M4740 7205 c-771 -84 -1458 -541 -1838 -1221 -27 -50 -64 -120 -80
-156 l-29 -65 -64 9 c-35 5 -125 7 -199 4 -427 -18 -818 -226 -1080 -574 -129
-171 -214 -361 -261 -584 -32 -148 -32 -408 0 -556 72 -339 241 -622 496 -832
185 -152 383 -248 626 -302 87 -19 133 -23 279 -22 175 0 244 9 407 56 l41 12
98 -93 c158 -149 347 -267 556 -345 100 -37 285 -86 326 -86 l22 0 0 245 0
244 -42 11 c-214 54 -414 166 -563 315 -78 78 -187 227 -214 293 -7 17 -18 32
-23 32 -5 0 -36 -19 -70 -41 -328 -223 -758 -217 -1082 15 -70 50 -188 170
-233 236 -49 73 -101 183 -130 277 -25 81 -27 101 -27 263 0 162 2 182 27 263
53 173 134 304 263 427 188 180 400 263 664 262 154 -1 277 -29 413 -96 50
-25 92 -44 93 -43 0 1 13 54 28 117 163 684 705 1233 1384 1405 276 70 586 76
862 19 715 -149 1298 -723 1460 -1439 13 -55 24 -102 26 -104 2 -2 46 18 98
43 140 69 261 97 416 98 262 1 471 -80 657 -256 135 -127 216 -257 270 -433
25 -81 27 -101 27 -263 0 -162 -2 -182 -27 -263 -54 -176 -135 -306 -270 -433
-130 -123 -283 -204 -452 -239 -96 -20 -275 -23 -359 -5 l-60 12 -30 -38 c-55
-73 -211 -219 -281 -265 -266 -175 -571 -239 -868 -184 l-37 7 0 -245 0 -246
58 -8 c116 -16 369 -8 491 16 293 57 562 188 791 384 l75 64 111 6 c508 29
974 337 1198 792 64 129 97 224 127 367 32 148 32 408 0 556 -72 339 -241 622
-496 832 -247 203 -532 313 -845 326 -74 3 -163 1 -198 -4 l-63 -9 -58 116
c-129 257 -259 440 -456 636 -515 515 -1234 769 -1955 690z"/>
<path d="M10400 5431 l0 -571 238 0 c181 0 252 4 297 15 233 61 365 262 365
555 0 285 -104 464 -318 542 -51 20 -83 22 -319 26 l-263 4 0 -571z m465 499
c80 -12 175 -53 226 -98 72 -63 124 -195 135 -341 19 -250 -70 -445 -240 -525
-76 -36 -151 -46 -343 -46 l-173 0 0 510 0 510 163 0 c89 0 194 -5 232 -10z"/>
<path d="M14280 5430 l0 -570 35 0 35 0 0 570 0 570 -35 0 -35 0 0 -570z"/>
<path d="M16830 5758 l0 -243 -31 47 c-60 92 -176 144 -303 136 -209 -14 -336
-178 -336 -434 0 -183 67 -321 191 -389 51 -28 61 -30 164 -30 100 0 115 2
160 27 49 26 105 78 139 128 15 24 16 22 16 -58 l0 -82 35 0 35 0 0 570 0 570
-35 0 -35 0 0 -242z m-152 -157 c201 -128 200 -548 -1 -665 -134 -79 -307 -42
-385 82 -48 76 -66 145 -66 252 0 152 46 264 133 324 56 39 85 46 182 43 78
-3 91 -6 137 -36z"/>
<path d="M11679 5685 c-162 -52 -261 -209 -261 -415 0 -208 101 -369 261 -416
83 -25 210 -16 279 20 139 71 212 208 212 398 0 183 -88 338 -228 401 -61 27
-197 33 -263 12z m246 -70 c129 -63 207 -250 176 -425 -34 -187 -145 -294
-306 -294 -197 1 -328 170 -312 403 7 94 18 131 59 200 37 62 88 106 144 127
55 20 187 14 239 -11z"/>
<path d="M13690 5684 c-82 -30 -137 -78 -177 -154 -11 -22 -13 -16 -13 63 l0
87 -30 0 -30 0 0 -410 0 -410 30 0 30 0 0 233 c0 128 5 260 11 292 21 112 80
194 169 234 51 23 169 29 217 10 38 -14 80 -56 106 -104 21 -38 22 -55 25
-352 l4 -313 29 0 29 0 0 303 c0 326 -4 362 -53 436 -14 20 -47 49 -77 65 -67
37 -198 46 -270 20z"/>
<path d="M14784 5691 c-92 -24 -189 -102 -233 -189 -30 -59 -51 -156 -51 -237
0 -178 85 -330 220 -394 71 -33 192 -41 273 -17 230 67 337 394 211 646 -63
125 -168 192 -309 196 -44 2 -94 0 -111 -5z m224 -77 c65 -32 125 -99 154
-173 19 -47 22 -75 22 -171 0 -98 -3 -124 -23 -175 -33 -82 -117 -166 -186
-185 -94 -27 -187 -16 -257 30 -111 74 -173 239 -148 397 21 133 87 233 185
279 73 35 181 34 253 -2z"/>
<path d="M15597 5686 c-102 -28 -173 -110 -193 -218 -6 -38 -6 -38 29 -38 33
0 35 2 40 41 8 61 47 112 108 143 45 22 66 26 138 26 100 0 152 -19 194 -69
24 -28 27 -41 27 -100 0 -115 -24 -131 -225 -151 -190 -19 -247 -40 -308 -110
-37 -44 -47 -75 -47 -152 0 -139 98 -218 270 -218 124 0 220 42 279 122 l28
38 7 -49 c9 -68 40 -93 110 -89 47 3 51 5 51 28 0 22 -4 25 -30 22 -61 -5 -60
-12 -65 325 l-5 308 -27 47 c-42 70 -112 102 -238 105 -57 2 -114 -3 -143 -11z
m341 -483 c-3 -86 -8 -117 -26 -149 -34 -66 -69 -101 -129 -131 -49 -23 -69
-27 -142 -27 -73 0 -93 4 -130 24 -60 33 -86 79 -85 150 1 133 70 176 322 200
63 6 128 17 145 25 18 7 36 14 41 14 4 1 6 -47 4 -106z"/>
<path d="M12220 5678 c0 -2 58 -185 129 -408 l128 -405 43 0 43 0 110 363 c61
199 114 359 117 355 5 -6 107 -338 205 -671 l16 -53 42 3 41 3 127 395 c71
217 128 401 128 408 1 7 -12 12 -32 12 l-33 0 -114 -374 c-63 -206 -115 -374
-116 -373 -1 1 -41 133 -89 292 -47 160 -98 327 -111 373 l-25 82 -43 0 -43 0
-108 -365 c-60 -201 -111 -365 -115 -365 -5 0 -117 354 -212 668 -18 60 -20
62 -53 62 -19 0 -35 -1 -35 -2z"/>
<path d="M4518 3143 l-3 -1198 -475 -3 -475 -2 720 -720 720 -720 718 717 717
718 -477 5 -478 5 -3 1198 -2 1197 -480 0 -480 0 -2 -1197z"/>
<path d="M14643 4170 c-95 -20 -166 -78 -188 -154 -10 -34 -15 -96 -15 -193
l0 -143 -110 0 -110 0 0 -45 0 -45 110 0 110 0 0 -575 0 -575 50 0 50 0 0 575
0 575 125 0 125 0 0 45 0 45 -125 0 -125 0 0 158 c0 137 3 161 19 188 28 46
91 67 185 62 l76 -3 0 42 c0 39 -2 43 -24 43 -13 0 -43 2 -67 4 -24 3 -63 1
-86 -4z"/>
<path d="M11970 4036 l0 -126 50 0 51 0 -3 123 -3 122 -47 3 -48 3 0 -125z"/>
<path d="M14910 4035 l0 -125 45 0 45 0 0 125 0 125 -45 0 -45 0 0 -125z"/>
<path d="M15310 3300 l0 -860 45 0 45 0 0 860 0 860 -45 0 -45 0 0 -860z"/>
<path d="M12835 3699 c-132 -19 -268 -117 -333 -236 l-31 -58 -1 138 0 138
-47 -3 -48 -3 -3 -837 -2 -838 50 0 50 0 0 347 0 347 27 -55 c76 -152 253
-239 463 -226 257 17 422 155 492 414 30 112 30 335 -1 446 -32 122 -77 203
-151 278 -121 122 -287 175 -465 148z m278 -117 c179 -88 276 -299 265 -572
-15 -349 -226 -553 -530 -510 -188 27 -304 139 -354 345 -24 97 -24 326 -1
415 49 183 142 294 286 342 44 14 79 17 163 15 96 -3 113 -7 171 -35z"/>
<path d="M16107 3700 c-214 -29 -383 -193 -448 -437 -27 -101 -30 -302 -6
-413 71 -318 336 -491 656 -426 211 43 352 183 400 397 l9 39 -47 0 c-48 0
-48 0 -61 -42 -37 -126 -126 -239 -224 -284 -71 -32 -190 -47 -275 -34 -214
33 -350 203 -377 470 l-7 70 499 2 499 3 -1 90 c-4 263 -146 479 -359 544 -74
23 -181 32 -258 21z m255 -112 c63 -29 136 -92 179 -154 34 -51 75 -168 84
-246 l7 -58 -449 0 -450 0 9 58 c33 214 154 370 327 419 27 7 85 12 141 10 78
-2 105 -8 152 -29z"/>
<path d="M10880 3635 l0 -45 375 0 c206 0 375 -2 375 -5 0 -2 -184 -242 -410
-532 -391 -504 -409 -530 -410 -570 l0 -43 495 0 495 0 0 40 0 40 -434 2 -434
3 414 533 c404 519 414 534 414 577 l0 45 -440 0 -440 0 0 -45z"/>
<path d="M11970 3061 l0 -621 50 0 50 0 -2 618 -3 617 -47 3 -48 3 0 -620z"/>
<path d="M14910 3060 l0 -620 45 0 45 0 0 620 0 620 -45 0 -45 0 0 -620z"/>
<path d="M10400 2565 l0 -125 60 0 60 0 0 125 0 125 -60 0 -60 0 0 -125z"/>
</g>
</svg>
