<?xml version="1.0" standalone="no"?>
<!DOCTYPE svg PUBLIC "-//W3C//DTD SVG 20010904//EN"
 "http://www.w3.org/TR/2001/REC-SVG-20010904/DTD/svg10.dtd">
<svg version="1.0" xmlns="http://www.w3.org/2000/svg"
 width="2000.000000pt" height="800.000000pt" viewBox="0 0 2000.000000 800.000000"
 preserveAspectRatio="xMidYMid meet">
<metadata>
Created by potrace 1.12, written by Peter Selinger 2001-2015
</metadata>
<g transform="translate(0.000000,800.000000) scale(0.100000,-0.100000)"
fill="#000000" stroke="none">
<path d="M0 4000 l0 -4000 10000 0 10000 0 0 4000 0 4000 -10000 0 -10000 0 0
-4000z m19895 0 l0 -3895 -9895 0 -9895 0 -3 3885 c-1 2137 0 3891 3 3898 3
10 1988 12 9897 10 l9893 -3 0 -3895z"/>
<path d="M4830 7214 c-19 -2 -78 -9 -130 -15 -412 -46 -868 -240 -1207 -513
-260 -210 -493 -501 -642 -800 l-62 -123 -47 8 c-88 15 -266 10 -384 -10 -291
-50 -555 -188 -769 -401 -212 -212 -336 -441 -400 -740 -18 -85 -23 -138 -23
-275 0 -181 11 -266 58 -422 122 -408 428 -746 826 -912 293 -122 616 -143
907 -58 l82 24 63 -65 c83 -85 248 -208 361 -270 158 -87 375 -164 530 -187
l47 -7 -2 247 -3 247 -65 18 c-313 82 -603 310 -741 582 l-29 58 -68 -47 c-81
-56 -189 -106 -291 -136 -66 -19 -99 -22 -246 -21 -155 0 -178 3 -258 27 -319
98 -556 335 -654 654 -24 80 -27 103 -27 258 -1 185 6 228 64 372 60 149 189
311 326 410 74 53 193 110 291 139 73 22 113 27 238 31 137 4 159 2 250 -21
55 -14 142 -46 194 -71 52 -25 95 -44 96 -43 1 2 14 55 29 118 161 673 677
1205 1354 1394 176 50 263 60 497 61 230 0 287 -6 470 -52 463 -115 877 -416
1140 -827 98 -154 198 -391 241 -574 14 -59 27 -112 29 -119 2 -7 31 3 79 29
164 86 291 113 487 105 104 -4 153 -11 222 -31 357 -106 620 -401 677 -760 19
-118 8 -311 -24 -419 -49 -165 -133 -303 -253 -418 -124 -118 -242 -187 -400
-236 -82 -25 -100 -27 -258 -26 -93 1 -184 3 -201 5 -28 3 -38 -5 -101 -77
-178 -206 -408 -341 -673 -395 -90 -19 -126 -21 -255 -16 -82 3 -165 8 -182
12 l-33 6 0 -245 0 -244 38 -7 c147 -25 386 -15 562 24 266 59 535 195 740
374 73 64 77 66 130 66 152 1 363 46 520 111 633 264 996 942 860 1609 -29
143 -61 235 -126 366 -201 404 -597 698 -1042 775 -118 20 -296 24 -385 10
l-47 -8 -61 123 c-345 698 -1032 1195 -1809 1309 -101 15 -438 28 -510 19z"/>
<path d="M10400 5431 l0 -571 238 0 c181 0 252 4 297 15 233 61 365 262 365
555 0 285 -104 464 -318 542 -51 20 -83 22 -319 26 l-263 4 0 -571z m465 499
c80 -12 175 -53 226 -98 72 -63 124 -195 135 -341 19 -250 -70 -445 -240 -525
-76 -36 -151 -46 -343 -46 l-173 0 0 510 0 510 163 0 c89 0 194 -5 232 -10z"/>
<path d="M14280 5430 l0 -570 35 0 35 0 0 570 0 570 -35 0 -35 0 0 -570z"/>
<path d="M16830 5758 l0 -243 -31 47 c-60 92 -176 144 -303 136 -209 -14 -336
-178 -336 -434 0 -183 67 -321 191 -389 51 -28 61 -30 164 -30 100 0 115 2
160 27 49 26 105 78 139 128 15 24 16 22 16 -58 l0 -82 35 0 35 0 0 570 0 570
-35 0 -35 0 0 -242z m-152 -157 c201 -128 200 -548 -1 -665 -134 -79 -307 -42
-385 82 -48 76 -66 145 -66 252 0 152 46 264 133 324 56 39 85 46 182 43 78
-3 91 -6 137 -36z"/>
<path d="M11679 5685 c-162 -52 -261 -209 -261 -415 0 -208 101 -369 261 -416
83 -25 210 -16 279 20 139 71 212 208 212 398 0 183 -88 338 -228 401 -61 27
-197 33 -263 12z m246 -70 c129 -63 207 -250 176 -425 -34 -187 -145 -294
-306 -294 -197 1 -328 170 -312 403 7 94 18 131 59 200 37 62 88 106 144 127
55 20 187 14 239 -11z"/>
<path d="M13690 5684 c-82 -30 -137 -78 -177 -154 -11 -22 -13 -16 -13 63 l0
87 -30 0 -30 0 0 -410 0 -410 30 0 30 0 0 233 c0 128 5 260 11 292 21 112 80
194 169 234 51 23 169 29 217 10 38 -14 80 -56 106 -104 21 -38 22 -55 25
-352 l4 -313 29 0 29 0 0 303 c0 326 -4 362 -53 436 -14 20 -47 49 -77 65 -67
37 -198 46 -270 20z"/>
<path d="M14784 5691 c-92 -24 -189 -102 -233 -189 -30 -59 -51 -156 -51 -237
0 -178 85 -330 220 -394 71 -33 192 -41 273 -17 230 67 337 394 211 646 -63
125 -168 192 -309 196 -44 2 -94 0 -111 -5z m224 -77 c65 -32 125 -99 154
-173 19 -47 22 -75 22 -171 0 -98 -3 -124 -23 -175 -33 -82 -117 -166 -186
-185 -94 -27 -187 -16 -257 30 -111 74 -173 239 -148 397 21 133 87 233 185
279 73 35 181 34 253 -2z"/>
<path d="M15597 5686 c-102 -28 -173 -110 -193 -218 -6 -38 -6 -38 29 -38 33
0 35 2 40 41 8 61 47 112 108 143 45 22 66 26 138 26 100 0 152 -19 194 -69
24 -28 27 -41 27 -100 0 -115 -24 -131 -225 -151 -190 -19 -247 -40 -308 -110
-37 -44 -47 -75 -47 -152 0 -139 98 -218 270 -218 124 0 220 42 279 122 l28
38 7 -49 c9 -68 40 -93 110 -89 47 3 51 5 51 28 0 22 -4 25 -30 22 -61 -5 -60
-12 -65 325 l-5 308 -27 47 c-42 70 -112 102 -238 105 -57 2 -114 -3 -143 -11z
m341 -483 c-3 -86 -8 -117 -26 -149 -34 -66 -69 -101 -129 -131 -49 -23 -69
-27 -142 -27 -73 0 -93 4 -130 24 -60 33 -86 79 -85 150 1 133 70 176 322 200
63 6 128 17 145 25 18 7 36 14 41 14 4 1 6 -47 4 -106z"/>
<path d="M12220 5678 c0 -2 58 -185 129 -408 l128 -405 43 0 43 0 110 363 c61
199 114 359 117 355 5 -6 107 -338 205 -671 l16 -53 42 3 41 3 127 395 c71
217 128 401 128 408 1 7 -12 12 -32 12 l-33 0 -114 -374 c-63 -206 -115 -374
-116 -373 -1 1 -41 133 -89 292 -47 160 -98 327 -111 373 l-25 82 -43 0 -43 0
-108 -365 c-60 -201 -111 -365 -115 -365 -5 0 -117 354 -212 668 -18 60 -20
62 -53 62 -19 0 -35 -1 -35 -2z"/>
<path d="M4524 4341 c-2 -2 -4 -541 -4 -1198 l0 -1193 -475 0 c-261 0 -475 -3
-475 -7 0 -5 323 -331 717 -725 l718 -718 712 712 c392 392 713 719 713 725 0
10 -101 13 -475 13 l-475 0 -2 1195 -3 1195 -473 3 c-261 1 -476 0 -478 -2z"/>
<path d="M17365 4199 c-92 -12 -168 -66 -199 -141 -12 -28 -16 -75 -16 -193
l0 -155 -110 0 -110 0 0 -45 0 -45 110 0 110 0 0 -575 0 -575 45 0 45 0 0 575
0 575 130 0 130 0 0 45 0 45 -131 0 -131 0 4 153 c4 178 11 201 78 235 39 20
56 23 128 19 l82 -3 0 38 c0 22 -5 40 -12 43 -28 8 -106 11 -153 4z"/>
<path d="M17615 4177 c-3 -7 -4 -65 -3 -128 l3 -114 45 0 45 0 0 125 0 125
-43 3 c-29 2 -44 -1 -47 -11z"/>
<path d="M18020 3330 l0 -860 45 0 45 0 0 860 0 860 -45 0 -45 0 0 -860z"/>
<path d="M11020 3901 l0 -190 -112 -3 -113 -3 0 -40 0 -40 113 -3 112 -3 0
-477 c1 -514 1 -517 54 -587 44 -57 96 -78 209 -83 l97 -4 0 41 0 41 -52 0
c-68 0 -127 16 -157 43 -50 46 -51 52 -51 557 l0 470 130 0 130 0 0 45 0 45
-130 0 -130 0 -2 188 -3 187 -47 3 -48 3 0 -190z"/>
<path d="M11850 3712 c-168 -45 -272 -166 -287 -334 l-6 -58 45 0 46 0 7 48
c15 106 81 199 170 241 63 29 119 40 207 41 160 0 263 -46 311 -140 26 -51 28
-62 24 -137 -9 -157 -50 -183 -323 -208 -93 -9 -199 -22 -237 -30 -141 -29
-235 -93 -284 -193 -25 -51 -28 -67 -28 -157 1 -113 17 -163 75 -229 111 -126
391 -154 588 -59 65 32 160 120 190 178 l21 40 1 -70 c0 -129 49 -178 170
-173 l65 3 3 42 3 43 -44 -6 c-57 -8 -83 7 -97 54 -6 23 -10 196 -10 453 0
481 0 480 -85 565 -78 78 -135 97 -315 101 -115 2 -159 -1 -210 -15z m510
-822 c-7 -41 -24 -100 -38 -130 -33 -70 -121 -158 -192 -193 -99 -48 -269 -57
-375 -20 -114 40 -165 113 -165 241 0 84 17 132 63 180 66 69 144 92 392 117
171 17 264 36 298 60 l22 15 3 -97 c2 -54 -2 -132 -8 -173z"/>
<path d="M14400 3711 c-180 -57 -309 -212 -355 -425 -21 -95 -16 -287 10 -381
53 -194 188 -333 365 -376 30 -7 98 -13 150 -12 184 1 325 79 412 228 l29 50
-4 -205 c-4 -226 -13 -271 -78 -359 -37 -52 -133 -115 -202 -133 -75 -19 -250
-16 -313 5 -73 25 -138 69 -174 118 -27 38 -36 61 -54 142 -6 25 -10 27 -53
27 l-46 0 6 -55 c22 -210 202 -335 484 -335 283 1 445 112 510 350 16 59 18
123 18 710 l0 645 -45 0 -45 0 -5 -125 -5 -125 -19 42 c-39 86 -138 168 -256
210 -84 29 -245 31 -330 4z m290 -77 c142 -42 240 -148 292 -314 18 -61 23
-98 23 -195 0 -97 -5 -134 -23 -195 -71 -228 -223 -339 -449 -328 -118 7 -195
41 -272 123 -139 147 -178 419 -91 647 46 123 152 226 265 261 66 21 188 21
255 1z"/>
<path d="M18760 3720 c-95 -24 -216 -102 -275 -177 -47 -60 -103 -179 -122
-262 -24 -102 -24 -318 0 -416 67 -268 262 -425 527 -425 142 0 263 40 359
118 73 59 147 190 166 295 l7 37 -45 0 -45 0 -22 -65 c-26 -80 -88 -174 -140
-215 -122 -96 -329 -115 -477 -43 -144 71 -252 266 -253 456 l0 47 495 0 494
0 6 33 c4 17 2 68 -4 112 -29 227 -128 382 -300 468 -83 41 -83 41 -210 44
-69 1 -142 -2 -161 -7z m261 -86 c174 -51 279 -195 314 -431 l7 -43 -452 0
-452 0 7 43 c24 141 72 246 149 323 55 54 129 98 193 113 62 15 175 12 234 -5z"/>
<path d="M12750 3090 l0 -620 44 0 44 0 5 388 c4 411 7 434 57 532 12 24 50
72 84 105 85 85 176 124 289 125 l47 0 0 45 0 45 -48 0 c-159 0 -345 -107
-406 -233 l-25 -52 -1 143 0 142 -45 0 -45 0 0 -620z"/>
<path d="M15324 3696 c-3 -8 -4 -27 -2 -43 l3 -28 377 -5 377 -5 -410 -528
c-397 -514 -409 -530 -409 -573 l0 -44 490 0 490 0 0 40 0 40 -431 2 -431 3
411 529 411 529 0 49 0 48 -435 0 c-366 0 -436 -2 -441 -14z"/>
<path d="M17617 3704 c-4 -4 -7 -283 -7 -621 l0 -613 50 0 50 0 -2 618 -3 617
-40 3 c-23 2 -44 0 -48 -4z"/>
<path d="M10400 2595 l0 -125 60 0 60 0 0 125 0 125 -60 0 -60 0 0 -125z"/>
<path d="M13550 2595 l0 -125 65 0 65 0 0 125 0 125 -65 0 -65 0 0 -125z"/>
</g>
</svg>
