<?xml version="1.0" standalone="no"?>
<!DOCTYPE svg PUBLIC "-//W3C//DTD SVG 20010904//EN"
 "http://www.w3.org/TR/2001/REC-SVG-20010904/DTD/svg10.dtd">
<svg version="1.0" xmlns="http://www.w3.org/2000/svg"
 width="2000.000000pt" height="800.000000pt" viewBox="0 0 2000.000000 800.000000"
 preserveAspectRatio="xMidYMid meet">
<metadata>
Created by potrace 1.12, written by Peter Selinger 2001-2015
</metadata>
<g transform="translate(0.000000,800.000000) scale(0.100000,-0.100000)"
fill="#000000" stroke="none">
<path d="M0 4000 l0 -4000 10000 0 10000 0 0 4000 0 4000 -10000 0 -10000 0 0
-4000z m19895 0 l0 -3895 -9895 0 -9895 0 -3 3885 c-1 2137 0 3891 3 3898 3
10 1988 12 9897 10 l9893 -3 0 -3895z"/>
<path d="M4695 7485 c-594 -55 -1139 -245 -1625 -568 -811 -539 -1364 -1389
-1520 -2339 -182 -1104 161 -2207 935 -3007 354 -366 762 -639 1233 -825 164
-65 214 -77 278 -65 58 11 97 39 120 86 18 35 19 62 15 383 -1 190 -5 347 -6
349 -2 2 -53 -4 -114 -13 -242 -35 -524 -15 -684 49 -144 58 -278 176 -335
297 -16 35 -50 106 -75 158 -92 192 -210 344 -332 424 -87 57 -155 125 -155
154 0 11 9 27 21 38 34 30 197 33 283 4 141 -47 273 -162 390 -340 126 -193
273 -310 446 -356 84 -22 259 -22 355 0 124 28 215 65 219 90 30 146 58 225
112 316 18 30 50 72 70 93 20 21 35 39 33 41 -2 2 -57 11 -121 20 -449 63
-783 205 -1019 433 -232 223 -361 496 -420 886 -29 190 -32 507 -6 644 44 232
137 436 278 610 l59 73 -24 82 c-67 232 -55 516 31 764 l28 79 65 3 c185 9
486 -103 784 -292 l109 -69 111 26 c277 65 437 82 766 82 314 0 429 -12 685
-67 77 -17 152 -33 167 -35 20 -4 51 11 135 63 301 190 598 301 783 292 l65
-3 28 -82 c87 -257 98 -528 31 -760 l-24 -83 63 -77 c138 -172 223 -356 269
-587 19 -95 23 -141 22 -316 -4 -738 -269 -1225 -805 -1479 -182 -86 -400
-147 -664 -186 -60 -9 -111 -18 -113 -20 -3 -2 17 -28 42 -56 55 -61 128 -206
150 -299 34 -142 38 -238 34 -775 -3 -520 -3 -531 18 -565 43 -74 126 -102
225 -76 88 23 292 107 440 181 371 185 673 407 967 709 513 530 847 1213 947
1941 49 359 44 705 -15 1063 -79 479 -262 944 -533 1352 -446 672 -1105 1168
-1872 1409 -430 135 -908 186 -1350 146z"/>
<path d="M10442 5628 c76 -205 155 -419 176 -476 l37 -103 39 3 38 3 174 465
c96 256 174 468 174 473 0 4 -13 7 -29 7 -28 0 -30 -3 -101 -197 -39 -109
-113 -310 -163 -446 -60 -165 -93 -244 -98 -234 -7 11 -187 504 -311 850 -8
22 -16 27 -43 27 l-32 0 139 -372z"/>
<path d="M16850 5846 l0 -105 -62 -3 c-57 -3 -63 -5 -66 -25 -3 -22 0 -23 62
-23 l66 0 0 -265 c0 -280 4 -309 47 -348 21 -18 103 -36 136 -29 9 2 17 12 17
21 0 14 -11 20 -49 25 -37 5 -55 13 -70 33 -20 24 -21 39 -21 294 l0 269 70 0
c68 0 70 1 70 25 0 24 -2 25 -70 25 l-69 0 -3 103 -3 102 -27 3 -28 3 0 -105z"/>
<path d="M11536 5734 c-67 -21 -145 -100 -176 -179 -34 -84 -34 -254 -2 -335
29 -73 69 -119 133 -155 49 -27 63 -30 144 -30 103 0 158 19 214 76 35 35 81
121 81 152 0 14 -6 18 -27 15 -21 -2 -29 -11 -41 -47 -19 -58 -86 -126 -137
-140 -60 -16 -145 -13 -191 8 -80 36 -144 144 -144 243 l0 38 276 0 277 0 -6
70 c-19 223 -194 347 -401 284z m215 -60 c70 -39 129 -136 129 -215 l0 -29
-245 0 c-278 0 -258 -7 -230 87 34 115 122 183 239 183 44 0 70 -6 107 -26z"/>
<path d="M13600 5741 c-68 -21 -157 -98 -162 -140 -1 -9 -4 18 -7 59 -6 72 -7
75 -31 75 l-25 0 0 -465 0 -465 28 -3 27 -3 0 186 0 187 33 -44 c50 -67 112
-93 222 -93 81 0 96 3 144 30 111 61 154 151 155 320 0 92 -4 119 -23 169 -32
81 -98 150 -167 176 -56 20 -145 25 -194 11z m174 -55 c99 -41 148 -130 154
-281 5 -126 -18 -198 -84 -262 -71 -69 -187 -85 -281 -38 -90 45 -127 126
-128 280 0 155 46 254 139 296 49 22 152 25 200 5z"/>
<path d="M14657 5736 c-188 -68 -271 -320 -173 -530 85 -183 326 -234 474
-101 91 82 133 216 112 352 -15 90 -39 142 -95 202 -77 82 -211 115 -318 77z
m210 -57 c150 -73 201 -326 98 -488 -30 -47 -51 -66 -105 -90 -124 -56 -264
-2 -327 127 -25 51 -28 67 -28 162 0 117 15 165 74 232 68 78 194 103 288 57z"/>
<path d="M15599 5737 c-60 -23 -109 -58 -140 -99 -109 -151 -98 -407 23 -527
57 -57 110 -76 213 -76 77 1 97 5 141 27 73 38 119 96 142 181 10 36 10 37
-17 37 -24 0 -30 -6 -41 -40 -18 -54 -75 -119 -124 -141 -47 -21 -130 -25
-187 -8 -86 26 -155 123 -166 233 l-6 56 278 0 278 0 -5 73 c-8 121 -67 220
-163 270 -50 26 -173 34 -226 14z m198 -58 c72 -35 115 -102 138 -216 l7 -33
-252 0 -252 0 7 38 c10 56 50 138 82 168 69 65 186 84 270 43z"/>
<path d="M16283 5733 c-60 -21 -137 -94 -170 -161 -26 -53 -28 -66 -28 -177 0
-142 21 -208 86 -275 142 -146 401 -106 485 75 32 67 32 95 -1 95 -20 0 -26
-7 -34 -37 -37 -134 -170 -202 -314 -162 -46 13 -112 69 -137 119 -62 122 -47
299 37 408 56 75 204 106 298 63 52 -23 102 -81 111 -126 5 -30 10 -35 35 -35
27 0 29 2 23 28 -21 94 -83 159 -177 187 -63 19 -159 18 -214 -2z"/>
<path d="M17697 5736 c-188 -68 -271 -320 -173 -530 85 -183 326 -234 474
-101 91 82 133 216 112 352 -15 90 -39 142 -95 202 -77 82 -211 115 -318 77z
m210 -57 c150 -73 201 -326 98 -488 -30 -47 -51 -66 -105 -90 -124 -56 -264
-2 -327 127 -25 51 -28 67 -28 162 0 117 15 165 74 232 68 78 194 103 288 57z"/>
<path d="M18437 5736 c-49 -18 -104 -61 -127 -99 l-19 -31 -3 65 c-3 61 -4 64
-28 64 l-25 0 -3 -342 -2 -343 30 0 30 0 0 223 c0 247 6 284 60 349 43 52 103
78 181 78 84 0 135 -28 167 -90 21 -42 22 -55 22 -302 l0 -258 31 0 31 0 -4
263 -3 262 -28 58 c-39 79 -91 109 -196 114 -49 2 -90 -2 -114 -11z"/>
<path d="M11157 5733 c-4 -3 -7 -159 -7 -345 l0 -338 25 0 25 0 0 345 c0 328
-1 345 -18 345 -10 0 -22 -3 -25 -7z"/>
<path d="M11980 5731 c0 -6 47 -159 105 -341 58 -183 105 -334 105 -336 0 -3
17 -4 37 -2 l37 3 90 298 c50 163 93 297 96 297 3 0 46 -134 95 -297 l90 -298
35 -3 35 -3 108 338 c59 186 107 342 107 346 0 5 -12 7 -27 5 -27 -3 -30 -9
-122 -310 -52 -169 -97 -305 -100 -302 -3 3 -46 141 -96 307 l-90 302 -32 3
c-26 3 -35 -1 -43 -20 -5 -13 -46 -149 -91 -303 -46 -154 -86 -283 -89 -288
-3 -4 -49 131 -101 300 -92 301 -95 308 -122 311 -15 2 -27 -1 -27 -7z"/>
<path d="M14107 5734 c-4 -4 -7 -160 -7 -346 l0 -338 29 0 30 0 3 233 3 234
30 49 c41 65 95 102 173 116 55 10 63 14 60 32 -3 18 -9 21 -51 19 -67 -2
-151 -45 -187 -95 l-29 -40 -3 69 c-3 60 -5 68 -23 71 -12 2 -24 0 -28 -4z"/>
<path d="M15205 5728 c-3 -7 -6 -198 -7 -424 -3 -389 -4 -413 -22 -433 -14
-15 -31 -21 -63 -21 -39 0 -43 -2 -43 -25 0 -23 4 -25 41 -25 55 0 101 23 124
63 19 30 20 53 20 452 l0 420 -23 3 c-12 2 -24 -3 -27 -10z"/>
<path d="M10885 4589 c-384 -52 -634 -257 -755 -618 -114 -339 -118 -861 -10
-1184 112 -332 335 -529 683 -603 199 -42 483 -37 672 11 109 27 251 83 307
120 l38 25 -2 603 -3 602 -410 0 -410 0 0 -215 0 -215 163 -3 162 -2 0 -229
c0 -268 20 -238 -165 -247 -196 -11 -316 20 -409 106 -133 122 -189 312 -189
635 0 219 22 345 83 470 66 139 162 216 316 255 141 36 436 23 586 -26 89 -29
88 -31 135 161 60 243 58 231 28 251 -46 30 -157 65 -274 85 -134 23 -435 34
-546 18z"/>
<path d="M14000 4491 c-7 -13 -10 -386 -10 -1136 0 -750 3 -1123 10 -1136 10
-18 24 -19 245 -19 221 0 235 1 245 19 6 13 10 187 10 495 l0 476 330 0 330 0
0 -489 c0 -437 2 -490 16 -495 31 -12 459 -7 472 6 17 17 17 2269 0 2286 -17
17 -459 17 -476 0 -9 -9 -12 -118 -12 -430 l0 -418 -330 0 -330 0 0 411 c0
264 -4 417 -10 430 -10 18 -24 19 -245 19 -221 0 -235 -1 -245 -19z"/>
<path d="M17542 4498 c-17 -17 -17 -2269 0 -2286 14 -14 325 -17 346 -3 8 4
16 27 19 50 3 23 9 44 14 46 4 3 29 -9 55 -26 110 -75 277 -119 447 -119 196
0 315 41 416 143 121 122 184 326 197 647 22 497 -131 796 -441 861 -76 16
-231 16 -315 0 -53 -10 -147 -42 -227 -78 -10 -4 -13 73 -13 367 0 237 -4 378
-10 391 -10 18 -24 19 -243 19 -168 0 -236 -3 -245 -12z m846 -1103 c109 -46
152 -160 151 -405 0 -324 -56 -420 -245 -420 -89 1 -145 11 -216 42 l-48 20 0
358 0 357 28 13 c105 50 256 65 330 35z"/>
<path d="M12220 4451 c-46 -14 -85 -39 -122 -78 -131 -136 -94 -355 77 -446
31 -17 57 -22 120 -22 92 0 137 19 196 82 61 64 74 97 74 193 0 102 -19 146
-90 208 -71 62 -174 87 -255 63z"/>
<path d="M12960 4211 c-6 -12 -10 -105 -10 -234 l0 -213 -77 -19 c-43 -10 -99
-24 -126 -32 l-47 -14 2 -167 3 -167 123 -3 122 -3 0 -312 c0 -172 5 -361 10
-420 26 -269 141 -402 392 -453 102 -21 292 -14 388 13 l65 18 0 180 0 180
-120 6 c-128 6 -157 13 -192 50 -40 44 -43 68 -43 410 l0 329 170 0 c157 0
170 1 180 19 6 12 10 92 10 191 0 99 -4 179 -10 191 -10 18 -23 19 -180 19
l-170 0 0 219 c0 190 -2 220 -16 225 -9 3 -116 6 -239 6 -212 0 -225 -1 -235
-19z"/>
<path d="M12052 3768 c-9 -9 -12 -195 -12 -773 0 -725 1 -763 18 -778 16 -15
47 -17 231 -17 127 0 220 4 232 10 19 10 19 30 19 778 0 584 -3 771 -12 780
-17 17 -459 17 -476 0z"/>
<path d="M15875 3764 c-15 -15 -16 -72 -12 -613 3 -514 6 -603 20 -650 27 -92
65 -156 122 -210 100 -95 225 -133 435 -133 153 0 271 28 417 96 52 26 97 46
99 46 2 0 4 -11 4 -24 0 -14 4 -36 10 -50 l10 -26 160 0 c120 0 162 3 164 13
3 6 7 353 10 770 6 747 6 757 -14 777 -19 19 -33 20 -231 20 -126 0 -218 -4
-230 -10 -18 -10 -19 -27 -19 -565 l0 -554 -25 -19 c-48 -38 -156 -64 -249
-61 -96 4 -128 21 -158 80 -16 31 -18 79 -18 559 0 459 -2 528 -16 548 -15 22
-19 22 -239 22 -193 0 -226 -2 -240 -16z"/>
</g>
</svg>
